<svg xmlns="http://www.w3.org/2000/svg" width="16.914" height="16.792" viewBox="0 0 16.914 16.792"><defs><style>.a,.b{fill:none;}.b{stroke:#4b6584;stroke-linecap:round;stroke-width:2px;}.c,.d{stroke:none;}.d{fill:#4b6584;}</style></defs><g transform="translate(-70 -129)"><g transform="translate(-1130.878 175)"><g class="a" transform="translate(1200.878 -46)"><path class="c" d="M6,0A6,6,0,1,1,0,6,6,6,0,0,1,6,0Z"/><path class="d" d="M 6 2 C 3.794389724731445 2 2 3.794389724731445 2 6 C 2 8.205610275268555 3.794389724731445 10 6 10 C 8.205610275268555 10 10 8.205610275268555 10 6 C 10 3.794389724731445 8.205610275268555 2 6 2 M 6 0 C 9.31371021270752 0 12 2.68628978729248 12 6 C 12 9.31371021270752 9.31371021270752 12 6 12 C 2.68628978729248 12 0 9.31371021270752 0 6 C 0 2.68628978729248 2.68628978729248 0 6 0 Z"/></g><line class="b" x2="5.819" y2="5.819" transform="translate(1210.559 -36.441)"/></g></g></svg>